# xmcd
#
# Track frame offsets:
#	150
#	21393
#	43014
#	62616
#	84702
#	108125
#	124536
#	147108
#	171135
#	195198
#	215211
#	239613
#	263686
#	280133
#	299695
#
# Disc length: 4303 seconds
#
# Revision: 1
# Processed by: cddbd v1.5.1PL0 Copyright (c) Steve Scherf et al.
# Submitted via: audiograbber 1.83.01
#
DISCID=df10cd0f
DTITLE=Joni Zougcasto - exode
DYEAR=1900
DGENRE=
TTITLE0=Afrofunk
TTITLE1=Bit of chance
TTITLE2=Remix Afrofunk
TTITLE3=Exode
TTITLE4=Misunderstand
TTITLE5=Remix bit of chance
TTITLE6=Mystery
TTITLE7=Awalé
TTITLE8=Minha mae
TTITLE9=Love roll
TTITLE10=In the wind
TTITLE11=Awalé DJ-Mix
TTITLE12=Bit of chance DJ-Mix
TTITLE13=Afrofunk DJ-Mix
TTITLE14=Exode DJ-Mix
EXTD=
EXTT0=
EXTT1=
EXTT2=
EXTT3=
EXTT4=
EXTT5=
EXTT6=
EXTT7=
EXTT8=
EXTT9=
EXTT10=
EXTT11=
EXTT12=
EXTT13=
EXTT14=
PLAYORDER=
